<svg width="110" height="26" viewBox="0 0 110 26" fill="none" xmlns="http://www.w3.org/2000/svg">
<g clip-path="url(#clip0_17509_11783)">
<path fill-rule="evenodd" clip-rule="evenodd" d="M0 13V26H13.1583H26.3166V13V0H13.1583H0V13ZM48.9703 6.85957V8.0766H51.3089H53.6475V14.1894V20.3021H55H56.3525V14.1894V8.0766H58.6911H61.0297V6.85957V5.64255H55H48.9703V6.85957ZM65.876 12.9723V20.3021H71.0886H76.3012V19.0851V17.8681H72.4129H68.5246V11.7553V5.64255H67.2003H65.876V12.9723ZM81.0912 12.9723V20.3021H86.6137H92.1363V19.1128V17.9234H87.7971H83.458V16.0149V14.1064H86.7828H90.1076V12.917V11.7277H86.7828H83.458V9.87447V8.02128H87.7971H92.1363V6.83191V5.64255H86.6137H81.0912V12.9723ZM97.377 12.9723V20.3021H98.7013H100.026V17.7574V15.2128L101.646 15.2158L103.266 15.2188L105.073 17.7466L106.88 20.2745L108.446 20.2892C109.705 20.301 110.007 20.2899 109.985 20.2327C109.97 20.1936 109.135 19.0294 108.131 17.6456C107.126 16.2619 106.246 15.0488 106.176 14.9498C106.055 14.7806 106.054 14.7677 106.15 14.7355C106.462 14.6314 107.176 14.3122 107.454 14.1524C107.63 14.051 108.005 13.7434 108.286 13.4687C108.703 13.0625 108.843 12.8817 109.034 12.5006C109.408 11.7525 109.508 11.2932 109.508 10.317C109.508 9.34728 109.407 8.87806 109.045 8.15957C108.339 6.75779 106.888 5.9036 104.867 5.70009C104.539 5.66695 102.829 5.64255 100.837 5.64255H97.377V12.9723ZM17.5365 12.917C19.2941 16.8723 20.7453 20.1397 20.7614 20.1777C20.7842 20.2319 20.5015 20.2465 19.4539 20.2456L18.1173 20.2445L15.6429 14.5063C14.282 11.3503 13.1516 8.74872 13.1309 8.72505C13.1102 8.70143 11.969 11.2841 10.5949 14.4644L8.09661 20.2468H6.81245H5.52829L5.60487 20.067C5.80115 19.6062 11.9069 5.88148 11.9543 5.79452C12.0039 5.70368 12.1032 5.69688 13.1745 5.7106L14.3408 5.72553L17.5365 12.917ZM31.2193 13V20.3021H32.5151H33.8109L33.8253 15.1883L33.8396 10.0744L37.8689 15.1877L41.8981 20.301L43.0392 20.3016L44.1803 20.3021V13V5.69787H42.8563H41.5324L41.518 10.6768L41.5036 15.6557L37.5871 10.6796L33.6706 5.70363L32.4449 5.70075L31.2193 5.69787V13ZM104.816 8.15493C105.63 8.32476 106.306 8.79104 106.588 9.37726C107.153 10.5474 106.713 11.8897 105.572 12.4846C104.894 12.8379 104.791 12.8501 102.294 12.8748L100.026 12.8972V10.4869V8.0766L102.237 8.07754C103.902 8.07826 104.54 8.09745 104.816 8.15493Z" fill="#ED4746"/>
</g>
<defs>
<clipPath id="clip0_17509_11783">
<rect width="110" height="26" fill="white"/>
</clipPath>
</defs>
</svg>
