<svg width="162" height="47" viewBox="0 0 162 47" fill="none" xmlns="http://www.w3.org/2000/svg">
<g clip-path="url(#clip0_10382_965)">
<path d="M137.933 1.0574H23.1012C10.9233 1.0574 1.05273 10.9739 1.05273 23.205C1.05273 35.4372 10.9243 45.3536 23.1001 45.3536H137.933C150.11 45.3536 159.981 35.4372 159.981 23.206C159.981 10.9728 150.11 1.0574 137.933 1.0574Z" stroke="#202020" stroke-width="1.56132"/>
<path d="M58.1104 18.5894C60.4714 18.5894 61.3525 17.0582 61.3525 15.342C61.3525 13.6248 60.5262 12.0937 58.1104 12.0937H55.9146V18.5904H58.1104V18.5894ZM58.3209 17.7783H56.8704V12.9058H58.322C59.6999 12.9058 60.3978 14.1049 60.3978 15.341C60.3978 16.5782 59.6999 17.7783 58.322 17.7783H58.3209ZM64.2357 18.6634C65.5851 18.6634 66.5135 17.6028 66.5135 16.3011C66.5135 15.0005 65.5851 13.9388 64.2357 13.9388C62.7935 13.9388 61.9567 15.0005 61.9567 16.3011C61.9567 17.6017 62.8567 18.6634 64.2357 18.6634ZM64.2357 17.8513C63.4272 17.8513 62.8388 17.1597 62.8388 16.3011C62.8388 15.4425 63.4272 14.7509 64.2357 14.7509C65.0441 14.7509 65.6314 15.4436 65.6314 16.3011C65.6314 17.1597 65.0441 17.8513 64.2357 17.8513ZM69.102 18.5894L70.1304 15.286L71.1588 18.5904H72.0409L73.5841 14.0118H72.6293L71.5999 17.3532L70.5525 14.0118H69.7072L68.6609 17.3532L67.6314 14.0118H66.6767L68.2199 18.5904H69.102V18.5894ZM75.0704 18.5894V16.2461C75.0704 15.2395 75.8051 14.7509 76.4114 14.7509C76.9535 14.7509 77.422 15.047 77.422 16.0061V18.5904H78.3041V15.9321C78.3041 14.5479 77.6978 13.9388 76.6135 13.9388C75.7504 13.9388 75.2346 14.5204 75.0704 14.7689V14.0129H74.1883V18.5904H75.0704V18.5894ZM80.1567 18.5894V11.9456H79.2746V18.5904H80.1567V18.5894ZM83.1862 18.6634C84.5367 18.6634 85.4641 17.6028 85.4641 16.3011C85.4641 15.0005 84.5367 13.9388 83.1862 13.9388C81.7441 13.9388 80.9072 15.0005 80.9072 16.3011C80.9072 17.6017 81.8083 18.6634 83.1862 18.6634ZM83.1862 17.8513C82.3778 17.8513 81.7893 17.1597 81.7893 16.3011C81.7893 15.4425 82.3778 14.7509 83.1862 14.7509C83.9946 14.7509 84.582 15.4436 84.582 16.3011C84.582 17.1597 83.9946 17.8513 83.1862 17.8513ZM90.2199 18.6634C90.3599 18.6645 90.4982 18.633 90.6241 18.5714V17.9073C90.4409 17.9623 90.183 17.9253 90.183 17.5013V16.042C90.183 14.3819 89.2735 13.9388 88.2546 13.9388C87.2251 13.9388 86.4546 14.4739 86.2146 15.341L87.042 15.563C87.1241 15.212 87.4272 14.7139 88.1809 14.7139C89.1083 14.7139 89.3009 15.268 89.3009 15.8581C87.5009 15.71 86.0672 15.9416 86.0672 17.2887C86.0672 18.1104 86.7567 18.6634 87.6672 18.6634C88.6041 18.6634 89.063 18.2298 89.3567 17.7318C89.403 18.3314 89.7514 18.6634 90.2199 18.6634ZM86.9493 17.2517C86.9493 16.5041 88.1346 16.3561 89.3009 16.5137C89.2272 17.0762 88.7135 17.8143 87.9325 17.8883C87.2714 17.9528 86.9493 17.6303 86.9493 17.2517ZM93.1293 18.6634C93.7451 18.6634 94.3146 18.3504 94.6083 17.8513V18.5894H95.4904V11.9456H94.6083V14.7319C94.3146 14.2529 93.7451 13.9388 93.1293 13.9388C91.9904 13.9388 91.0809 14.9445 91.0809 16.3011C91.0809 17.6578 91.9904 18.6634 93.1293 18.6634ZM93.2862 17.8513C92.4967 17.8513 91.963 17.1407 91.963 16.3011C91.963 15.4615 92.4957 14.7509 93.2862 14.7509C94.0125 14.7509 94.6083 15.4615 94.6083 16.3011C94.6083 17.1407 94.0114 17.8513 93.2862 17.8513ZM101.476 18.6634C102.825 18.6634 103.754 17.6028 103.754 16.3011C103.754 15.0005 102.825 13.9388 101.475 13.9388C100.032 13.9388 99.1967 15.0005 99.1967 16.3011C99.1967 17.6017 100.097 18.6634 101.475 18.6634H101.476ZM101.476 17.8513C100.666 17.8513 100.079 17.1597 100.079 16.3011C100.079 15.4425 100.666 14.7509 101.475 14.7509C102.283 14.7509 102.871 15.4436 102.871 16.3011C102.871 17.1597 102.283 17.8513 101.475 17.8513H101.476ZM105.386 18.5894V16.2461C105.386 15.2395 106.121 14.7509 106.727 14.7509C107.269 14.7509 107.738 15.047 107.738 16.0061V18.5904H108.62V15.9321C108.62 14.5479 108.014 13.9388 106.929 13.9388C106.066 13.9388 105.551 14.5204 105.386 14.7689V14.0129H104.504V18.5904H105.386V18.5894ZM114.476 18.6634C114.668 18.6634 114.917 18.6359 115.119 18.5894V17.7783C114.705 17.8608 113.796 17.9443 113.796 17.1502V14.8239H115.119V14.0129H113.796V12.6837H113.061C113.061 13.7453 112.867 14.0869 112.031 14.2339V14.825H112.914V17.0392C112.914 18.4244 113.685 18.6634 114.476 18.6634ZM116.971 18.5894V16.2461C116.971 15.2395 117.706 14.7509 118.312 14.7509C118.855 14.7509 119.323 15.047 119.323 16.0061V18.5904H120.205V15.9321C120.205 14.5479 119.599 13.9388 118.515 13.9388C117.651 13.9388 117.137 14.5204 116.971 14.7689V11.9456H116.089V18.5904H116.971V18.5894ZM123.243 18.6634C124.492 18.6634 125.071 17.8428 125.32 17.2242L124.484 17.0022C124.282 17.4643 123.878 17.8513 123.262 17.8513C122.417 17.8513 121.892 17.2887 121.828 16.5591H125.338C125.357 16.4492 125.365 16.3656 125.365 16.2366C125.357 14.6124 124.272 13.9388 123.225 13.9388C121.875 13.9388 120.956 14.9265 120.956 16.3011C120.956 17.6017 121.801 18.6634 123.243 18.6634ZM124.465 15.821H121.875C122.012 15.2215 122.398 14.7139 123.271 14.7139C123.95 14.7139 124.41 15.1845 124.465 15.821ZM57.4135 33.3551L57.9925 31.6495H61.7735L62.3525 33.3551H64.6156L61.2209 24.2603H58.5451L55.1504 33.3551H57.4135ZM61.182 29.8931H58.5841L59.883 26.0685L61.182 29.8931ZM67.1483 36.2493V32.451C67.4957 33.1225 68.2672 33.5613 69.1935 33.5613C70.8651 33.5613 72.0872 31.9858 72.0872 30.0475C72.0872 28.1103 70.8651 26.5337 69.1925 26.5337C68.2662 26.5337 67.4957 27.0762 67.1483 27.7476V26.7399H65.0904V36.2493H67.1483ZM68.5883 31.7024C67.7914 31.7024 67.1483 30.9516 67.1483 30.0475C67.1483 29.1434 67.7904 28.3937 68.5883 28.3937C69.3862 28.3937 70.0293 29.1434 70.0293 30.0475C70.0293 30.9527 69.3862 31.7013 68.5883 31.7013V31.7024ZM74.9272 36.2493V32.451C75.2746 33.1225 76.0462 33.5613 76.9725 33.5613C78.6451 33.5613 79.8672 31.9858 79.8672 30.0475C79.8672 28.1103 78.6451 26.5337 76.9725 26.5337C76.0462 26.5337 75.2746 27.0762 74.9272 27.7476V26.7399H72.8704V36.2493H74.9272ZM76.3683 31.7024C75.5704 31.7024 74.9272 30.9516 74.9272 30.0475C74.9272 29.1434 75.5704 28.3937 76.3683 28.3937C77.1651 28.3937 77.8083 29.1434 77.8083 30.0475C77.8083 30.9527 77.1662 31.7013 76.3683 31.7013V31.7024ZM87.6062 33.5624C90.0241 33.5624 91.3104 32.193 91.3104 30.591C91.3104 28.5238 89.8314 27.8904 87.7093 27.5806C86.5262 27.3998 86.3588 27.0381 86.3588 26.6892C86.3588 26.3011 86.6925 25.8105 87.6062 25.8105C88.622 25.8105 88.943 26.6627 88.943 27.257L90.9757 26.8446C90.9114 25.4097 89.8314 24.053 87.6314 24.053C85.4841 24.053 84.2104 25.2416 84.2104 26.7664C84.2104 28.3684 85.0335 29.2598 87.6062 29.6732C88.7504 29.8667 89.1493 30.1765 89.1493 30.72C89.1493 31.2234 88.6988 31.805 87.6062 31.805C86.3451 31.805 85.9851 30.7454 85.9851 29.9439L83.902 30.3573C83.902 32.0376 85.1367 33.5613 87.6062 33.5613V33.5624ZM95.3083 33.5624C95.6041 33.5624 96.2472 33.4714 96.5178 33.3551V31.5977C95.9388 31.7278 94.8714 31.9086 94.8714 30.9262V28.4974H96.5178V26.7399H94.8714V24.6737H93.2251C93.2251 26.004 92.8651 26.9345 91.5788 27.0508V28.4974H92.8135V30.8744C92.8135 33.2388 93.9967 33.5624 95.3083 33.5624ZM100.387 33.5624C102.458 33.5624 103.885 31.9858 103.885 30.0475C103.885 28.1103 102.445 26.5337 100.387 26.5337C98.1872 26.5337 96.8893 28.1093 96.8893 30.0475C96.8893 31.9858 98.2262 33.5624 100.387 33.5624ZM100.387 31.7013C99.5388 31.7013 98.9472 30.9527 98.9472 30.0475C98.9472 29.1434 99.5388 28.3937 100.387 28.3937C101.236 28.3937 101.827 29.1434 101.827 30.0475C101.827 30.9527 101.236 31.7013 100.387 31.7013ZM106.623 33.3551V30.6936C106.623 28.8326 108.077 28.2393 109.427 28.8463L109.71 26.7399C108.515 26.4946 107.086 26.9863 106.623 28.0966V26.7399H104.566V33.3551H106.623ZM113.143 33.5624C115.007 33.5624 115.959 32.4902 116.332 31.3788L114.378 31.0034C114.21 31.3661 113.902 31.9086 113.117 31.9086C112.332 31.9086 111.792 31.3524 111.664 30.5646H116.37C116.397 30.3711 116.409 30.0359 116.409 29.8413C116.397 27.5679 114.776 26.5337 113.104 26.5337C110.892 26.5337 109.619 28.0067 109.619 30.0475C109.619 31.9858 110.841 33.5624 113.143 33.5624ZM114.364 29.3243H111.702C111.857 28.6528 112.242 28.1357 113.129 28.1357C113.811 28.1357 114.287 28.601 114.364 29.3243Z" fill="#202020"/>
<path fill-rule="evenodd" clip-rule="evenodd" d="M36.9126 23.8448C36.9431 27.1809 39.7884 28.2922 39.8199 28.306C39.7957 28.3842 39.3652 29.8889 38.3199 31.4423C37.4178 32.7852 36.481 34.1239 35.0041 34.1514C33.5536 34.1789 33.0884 33.2758 31.4294 33.2758C29.7715 33.2758 29.2536 34.1239 27.8799 34.1789C26.4557 34.2339 25.3705 32.726 24.4599 31.3873C22.5999 28.6507 21.1778 23.6523 23.0873 20.2781C24.0347 18.6031 25.7294 17.5426 27.5694 17.5151C28.9694 17.4876 30.2894 18.4731 31.1441 18.4731C31.9989 18.4731 33.6041 17.2888 35.2915 17.4622C35.9968 17.4918 37.9799 17.7519 39.2536 19.6489C39.1505 19.7134 36.8873 21.0553 36.9126 23.8448ZM34.1863 15.6508C34.9431 14.7193 35.4515 13.4218 35.3126 12.1296C34.2231 12.1751 32.9041 12.8698 32.122 13.8014C31.421 14.6262 30.8063 15.9469 30.9726 17.2126C32.1884 17.3078 33.4294 16.5835 34.1863 15.6508Z" fill="#202020"/>
</g>
<defs>
<clipPath id="clip0_10382_965">
<rect width="161.053" height="46.5263" fill="white"/>
</clipPath>
</defs>
</svg>
