<svg id="Icon_App_Store" data-name="Icon App Store" xmlns="http://www.w3.org/2000/svg" width="203.74" height="60.377" viewBox="0 0 203.74 60.377">
  <path id="Path_87" data-name="Path 87" d="M876.113,1046.456a5.958,5.958,0,0,1-5.868,6.052h-192a5.965,5.965,0,0,1-5.874-6.052V998.191a5.973,5.973,0,0,1,5.874-6.059h192a5.965,5.965,0,0,1,5.868,6.059v48.265Z" transform="translate(-672.373 -992.132)" fill="#fff"/>
  <g id="Group_57" data-name="Group 57" transform="translate(18.17 8.114)">
    <g id="Group_56" data-name="Group 56">
      <path id="Path_88" data-name="Path 88" d="M712.424,1016.874a9.123,9.123,0,0,1,4.216-7.636,8.981,8.981,0,0,0-7.139-3.969c-3-.323-5.914,1.848-7.445,1.848-1.559,0-3.916-1.815-6.453-1.762a9.475,9.475,0,0,0-8,5.017c-3.459,6.159-.879,15.21,2.434,20.187,1.658,2.439,3.6,5.161,6.131,5.064,2.481-.106,3.408-1.627,6.4-1.627,2.967,0,3.836,1.627,6.422,1.565,2.661-.044,4.339-2.448,5.94-4.908a20.419,20.419,0,0,0,2.715-5.688A8.759,8.759,0,0,1,712.424,1016.874Z" transform="translate(-685.959 -995.842)" fill="#424240"/>
      <path id="Path_89" data-name="Path 89" d="M703.566,1004.455a8.719,8.719,0,0,0,1.994-6.243,8.871,8.871,0,0,0-5.737,2.968,8.3,8.3,0,0,0-2.045,6.013A7.333,7.333,0,0,0,703.566,1004.455Z" transform="translate(-681.986 -998.212)" fill="#424240"/>
    </g>
  </g>
  <g id="Group_58" data-name="Group 58" transform="translate(63.864 28.166)">
    <path id="Path_90" data-name="Path 90" d="M736.919,1032.2h-3.467l-1.9-5.968h-6.6l-1.808,5.968h-3.376l6.54-20.317h4.041Zm-5.938-8.471-1.718-5.3q-.271-.814-1.025-3.828h-.062q-.3,1.3-.964,3.828l-1.688,5.3Z" transform="translate(-719.768 -1011.585)" fill="#424240"/>
    <path id="Path_91" data-name="Path 91" d="M748.727,1023.344a8.331,8.331,0,0,1-2.02,5.907,5.9,5.9,0,0,1-4.491,1.929,4.487,4.487,0,0,1-4.159-2.08H738v7.717h-3.255v-15.794q0-2.351-.121-4.823h2.864l.18,2.32h.062a5.791,5.791,0,0,1,9.268-.574A8.081,8.081,0,0,1,748.727,1023.344Zm-3.317.119a6.038,6.038,0,0,0-.964-3.526,3.332,3.332,0,0,0-2.833-1.447,3.379,3.379,0,0,0-2.185.8,3.7,3.7,0,0,0-1.281,2.1,4.285,4.285,0,0,0-.151.993v2.442a3.916,3.916,0,0,0,.981,2.7,3.25,3.25,0,0,0,2.546,1.1,3.331,3.331,0,0,0,2.863-1.417A6.236,6.236,0,0,0,745.411,1023.463Z" transform="translate(-714.756 -1010.231)" fill="#424240"/>
    <path id="Path_92" data-name="Path 92" d="M761.325,1023.344a8.319,8.319,0,0,1-2.021,5.907,5.9,5.9,0,0,1-4.491,1.929,4.486,4.486,0,0,1-4.158-2.08h-.06v7.717h-3.255v-15.794q0-2.351-.12-4.823h2.863l.181,2.32h.06a5.793,5.793,0,0,1,9.27-.574A8.087,8.087,0,0,1,761.325,1023.344Zm-3.315.119a6.037,6.037,0,0,0-.966-3.526,3.33,3.33,0,0,0-2.833-1.447,3.378,3.378,0,0,0-2.186.8,3.7,3.7,0,0,0-1.28,2.1,4.282,4.282,0,0,0-.151.993v2.442a3.922,3.922,0,0,0,.978,2.7,3.253,3.253,0,0,0,2.549,1.1,3.33,3.33,0,0,0,2.862-1.417A6.238,6.238,0,0,0,758.009,1023.463Z" transform="translate(-710.505 -1010.231)" fill="#424240"/>
    <path id="Path_93" data-name="Path 93" d="M775.032,1026.583a5.411,5.411,0,0,1-1.8,4.218,7.99,7.99,0,0,1-5.534,1.779,9.689,9.689,0,0,1-5.265-1.265l.754-2.713a8.924,8.924,0,0,0,4.705,1.3,4.453,4.453,0,0,0,2.866-.83,2.715,2.715,0,0,0,1.023-2.22,2.831,2.831,0,0,0-.844-2.083,7.849,7.849,0,0,0-2.8-1.572q-5.336-1.99-5.335-5.827a5.163,5.163,0,0,1,1.87-4.106,7.384,7.384,0,0,1,4.974-1.6,9.852,9.852,0,0,1,4.61.964l-.815,2.654a7.994,7.994,0,0,0-3.888-.935,3.928,3.928,0,0,0-2.68.844,2.41,2.41,0,0,0-.814,1.839,2.48,2.48,0,0,0,.934,1.989,10.524,10.524,0,0,0,2.954,1.569,10.017,10.017,0,0,1,3.858,2.47A5.178,5.178,0,0,1,775.032,1026.583Z" transform="translate(-705.373 -1011.661)" fill="#424240"/>
    <path id="Path_94" data-name="Path 94" d="M782.149,1019.485h-3.587v7.114q0,2.712,1.9,2.714a5.824,5.824,0,0,0,1.447-.151l.09,2.472a7.354,7.354,0,0,1-2.532.361,3.906,3.906,0,0,1-3.015-1.174,5.775,5.775,0,0,1-1.086-3.949v-7.385h-2.137v-2.441h2.137v-2.683l3.2-.966v3.649h3.587Z" transform="translate(-701.729 -1011.075)" fill="#424240"/>
    <path id="Path_95" data-name="Path 95" d="M795.622,1023.4a8.041,8.041,0,0,1-1.929,5.546,6.893,6.893,0,0,1-5.367,2.229,6.547,6.547,0,0,1-5.138-2.139,7.8,7.8,0,0,1-1.914-5.4,7.964,7.964,0,0,1,1.974-5.577,6.834,6.834,0,0,1,5.319-2.17,6.688,6.688,0,0,1,5.185,2.141A7.718,7.718,0,0,1,795.622,1023.4Zm-3.378.106a6.6,6.6,0,0,0-.873-3.477,3.22,3.22,0,0,0-2.922-1.752,3.265,3.265,0,0,0-2.985,1.752,6.725,6.725,0,0,0-.873,3.539,6.586,6.586,0,0,0,.873,3.475,3.327,3.327,0,0,0,5.878-.029A6.609,6.609,0,0,0,792.244,1023.509Z" transform="translate(-699.013 -1010.231)" fill="#424240"/>
    <path id="Path_96" data-name="Path 96" d="M801.89,1019.062a5.59,5.59,0,0,0-1.026-.089,3.076,3.076,0,0,0-2.653,1.3,4.866,4.866,0,0,0-.813,2.892v7.688h-3.254l.03-10.036q0-2.536-.122-4.613h2.835l.12,2.8h.088a5,5,0,0,1,1.629-2.319,3.929,3.929,0,0,1,2.353-.785,5.13,5.13,0,0,1,.813.06Z" transform="translate(-694.702 -1010.231)" fill="#424240"/>
    <path id="Path_97" data-name="Path 97" d="M814.082,1022.839a7.57,7.57,0,0,1-.12,1.477H804.2a4.251,4.251,0,0,0,1.416,3.317,4.838,4.838,0,0,0,3.194,1.024,10.8,10.8,0,0,0,3.951-.694l.51,2.261a12.219,12.219,0,0,1-4.911.905,7.112,7.112,0,0,1-5.352-2,7.41,7.41,0,0,1-1.943-5.382,8.391,8.391,0,0,1,1.81-5.516,6.236,6.236,0,0,1,5.122-2.35,5.455,5.455,0,0,1,4.795,2.35A7.922,7.922,0,0,1,814.082,1022.839Zm-3.1-.844a4.434,4.434,0,0,0-.633-2.5,2.843,2.843,0,0,0-2.593-1.356,3.091,3.091,0,0,0-2.592,1.327,4.843,4.843,0,0,0-.963,2.532Z" transform="translate(-692.337 -1010.239)" fill="#424240"/>
  </g>
  <g id="Group_60" data-name="Group 60" transform="translate(65.796 9.819)">
    <g id="Group_59" data-name="Group 59">
      <path id="Path_98" data-name="Path 98" d="M729.417,1003.758a5.014,5.014,0,0,1-1.614,4.059,6.425,6.425,0,0,1-4.249,1.259,19.829,19.829,0,0,1-2.341-.119v-9.818a17.208,17.208,0,0,1,2.755-.207,5.937,5.937,0,0,1,3.953,1.141A4.606,4.606,0,0,1,729.417,1003.758Zm-1.688.045a3.254,3.254,0,0,0-3.629-3.614,6.8,6.8,0,0,0-1.288.1v7.463a8.354,8.354,0,0,0,1.081.045,3.783,3.783,0,0,0,2.835-1.023A4.086,4.086,0,0,0,727.729,1003.8Z" transform="translate(-721.213 -998.487)" fill="#424240"/>
      <path id="Path_99" data-name="Path 99" d="M735.812,1004.644a3.942,3.942,0,0,1-.948,2.724,3.381,3.381,0,0,1-2.636,1.1,3.219,3.219,0,0,1-2.525-1.051,3.831,3.831,0,0,1-.939-2.651,3.914,3.914,0,0,1,.968-2.739,3.358,3.358,0,0,1,2.615-1.066,3.3,3.3,0,0,1,2.548,1.05A3.8,3.8,0,0,1,735.812,1004.644Zm-1.658.052a3.234,3.234,0,0,0-.431-1.708,1.579,1.579,0,0,0-1.435-.861,1.607,1.607,0,0,0-1.467.861,3.311,3.311,0,0,0-.429,1.737,3.254,3.254,0,0,0,.429,1.709,1.614,1.614,0,0,0,1.453.86,1.6,1.6,0,0,0,1.435-.876A3.235,3.235,0,0,0,734.154,1004.7Z" transform="translate(-718.665 -997.803)" fill="#424240"/>
      <path id="Path_100" data-name="Path 100" d="M745.632,1001.068l-2.251,7.2h-1.466l-.933-3.124a22.954,22.954,0,0,1-.578-2.326h-.028a17.069,17.069,0,0,1-.579,2.326l-.991,3.124h-1.482l-2.117-7.2h1.645l.813,3.421q.3,1.214.49,2.31h.028q.179-.9.594-2.295l1.021-3.436h1.3l.977,3.362q.355,1.228.577,2.369h.045a22.54,22.54,0,0,1,.488-2.369l.873-3.362Z" transform="translate(-716.491 -997.766)" fill="#424240"/>
      <path id="Path_101" data-name="Path 101" d="M750.8,1008.3h-1.6v-4.121q0-1.906-1.45-1.906a1.44,1.44,0,0,0-1.155.524,1.85,1.85,0,0,0-.444,1.233v4.269h-1.6v-5.139q0-.947-.059-2.058h1.406l.075,1.125h.044a2.309,2.309,0,0,1,.829-.868,2.694,2.694,0,0,1,1.451-.4,2.294,2.294,0,0,1,1.675.651,3.164,3.164,0,0,1,.829,2.383Z" transform="translate(-713.359 -997.803)" fill="#424240"/>
      <path id="Path_102" data-name="Path 102" d="M752.906,1009.1h-1.6V998.6h1.6Z" transform="translate(-711.058 -998.599)" fill="#424240"/>
      <path id="Path_103" data-name="Path 103" d="M761.325,1004.644a3.947,3.947,0,0,1-.948,2.724,3.384,3.384,0,0,1-2.636,1.1,3.218,3.218,0,0,1-2.526-1.051,3.83,3.83,0,0,1-.939-2.651,3.908,3.908,0,0,1,.97-2.739,3.352,3.352,0,0,1,2.612-1.066,3.3,3.3,0,0,1,2.549,1.05A3.8,3.8,0,0,1,761.325,1004.644Zm-1.661.052a3.247,3.247,0,0,0-.429-1.708,1.58,1.58,0,0,0-1.435-.861,1.6,1.6,0,0,0-1.467.861,3.31,3.31,0,0,0-.429,1.737,3.253,3.253,0,0,0,.429,1.709,1.614,1.614,0,0,0,1.452.86,1.6,1.6,0,0,0,1.435-.876A3.234,3.234,0,0,0,759.664,1004.7Z" transform="translate(-710.057 -997.803)" fill="#424240"/>
      <path id="Path_104" data-name="Path 104" d="M766.827,1008.3h-1.438l-.119-.829h-.046a2.463,2.463,0,0,1-2.1.992,2.165,2.165,0,0,1-1.642-.651,2.044,2.044,0,0,1-.563-1.466,2.238,2.238,0,0,1,1.1-2.014,5.735,5.735,0,0,1,3.1-.682v-.132q0-1.422-1.494-1.422a3.343,3.343,0,0,0-1.875.532l-.325-1.051a4.605,4.605,0,0,1,2.469-.621q2.823,0,2.823,2.976v2.651A11.09,11.09,0,0,0,766.827,1008.3Zm-1.661-2.473v-1.11q-2.648-.044-2.648,1.451a1.083,1.083,0,0,0,.308.844,1.118,1.118,0,0,0,.781.281,1.607,1.607,0,0,0,.978-.333,1.366,1.366,0,0,0,.555-.851A1.327,1.327,0,0,0,765.166,1005.829Z" transform="translate(-707.815 -997.803)" fill="#424240"/>
      <path id="Path_105" data-name="Path 105" d="M773.867,1009.1h-1.419l-.075-1.156h-.044a2.391,2.391,0,0,1-2.311,1.319,2.7,2.7,0,0,1-2.161-1.022,3.98,3.98,0,0,1-.86-2.651,4.17,4.17,0,0,1,.934-2.829,2.869,2.869,0,0,1,2.221-1.006,2.156,2.156,0,0,1,2.028.976h.031V998.6h1.6v8.56C773.81,1007.859,773.828,1008.505,773.867,1009.1Zm-1.657-3.035v-1.2a2.309,2.309,0,0,0-.046-.5,1.822,1.822,0,0,0-.578-.969,1.569,1.569,0,0,0-1.071-.393,1.64,1.64,0,0,0-1.407.712,3.05,3.05,0,0,0-.514,1.821,2.853,2.853,0,0,0,.492,1.734,1.651,1.651,0,0,0,1.4.71,1.543,1.543,0,0,0,1.264-.592A1.977,1.977,0,0,0,772.209,1006.063Z" transform="translate(-705.764 -998.599)" fill="#424240"/>
      <path id="Path_106" data-name="Path 106" d="M784.142,1004.644a3.942,3.942,0,0,1-.948,2.724,3.379,3.379,0,0,1-2.636,1.1,3.223,3.223,0,0,1-2.525-1.051,3.831,3.831,0,0,1-.939-2.651,3.914,3.914,0,0,1,.968-2.739,3.36,3.36,0,0,1,2.616-1.066,3.293,3.293,0,0,1,2.546,1.05A3.8,3.8,0,0,1,784.142,1004.644Zm-1.657.052a3.25,3.25,0,0,0-.429-1.708,1.584,1.584,0,0,0-1.438-.861,1.609,1.609,0,0,0-1.467.861,3.311,3.311,0,0,0-.429,1.737,3.254,3.254,0,0,0,.429,1.709,1.615,1.615,0,0,0,1.452.86,1.6,1.6,0,0,0,1.436-.876A3.247,3.247,0,0,0,782.485,1004.7Z" transform="translate(-702.357 -997.803)" fill="#424240"/>
      <path id="Path_107" data-name="Path 107" d="M790.387,1008.3h-1.6v-4.121q0-1.906-1.451-1.906a1.434,1.434,0,0,0-1.154.524,1.851,1.851,0,0,0-.445,1.233v4.269h-1.6v-5.139c0-.631-.017-1.317-.056-2.058h1.4l.075,1.125h.044a2.331,2.331,0,0,1,.829-.868,2.7,2.7,0,0,1,1.453-.4,2.292,2.292,0,0,1,1.672.651,3.153,3.153,0,0,1,.829,2.383Z" transform="translate(-699.999 -997.803)" fill="#424240"/>
      <path id="Path_108" data-name="Path 108" d="M797.953,1002.72H796.19v3.495c0,.889.313,1.333.933,1.333a2.865,2.865,0,0,0,.713-.075l.041,1.214a3.594,3.594,0,0,1-1.244.178,1.908,1.908,0,0,1-1.478-.578,2.815,2.815,0,0,1-.534-1.939v-3.628H793.57v-1.2h1.052V1000.2l1.568-.472v1.791h1.763Z" transform="translate(-696.797 -998.218)" fill="#424240"/>
      <path id="Path_109" data-name="Path 109" d="M804.758,1009.1h-1.6v-4.091q0-1.936-1.448-1.935a1.529,1.529,0,0,0-1.527,1.122,2.044,2.044,0,0,0-.073.577v4.328h-1.6V998.6h1.6v4.337h.029a2.417,2.417,0,0,1,2.161-1.182,2.233,2.233,0,0,1,1.646.651,3.27,3.27,0,0,1,.814,2.413Z" transform="translate(-695.131 -998.599)" fill="#424240"/>
      <path id="Path_110" data-name="Path 110" d="M811.327,1004.367a3.819,3.819,0,0,1-.059.725h-4.8a2.1,2.1,0,0,0,.7,1.629,2.376,2.376,0,0,0,1.572.5,5.31,5.31,0,0,0,1.94-.341l.25,1.111a6.03,6.03,0,0,1-2.414.444,3.488,3.488,0,0,1-2.628-.984,3.631,3.631,0,0,1-.953-2.644,4.125,4.125,0,0,1,.888-2.71,3.061,3.061,0,0,1,2.517-1.156,2.675,2.675,0,0,1,2.353,1.156A3.866,3.866,0,0,1,811.327,1004.367Zm-1.526-.415a2.159,2.159,0,0,0-.31-1.229,1.4,1.4,0,0,0-1.273-.666,1.52,1.52,0,0,0-1.273.651,2.4,2.4,0,0,0-.475,1.244Z" transform="translate(-692.964 -997.807)" fill="#424240"/>
    </g>
  </g>
</svg>
