<svg width="162" height="47" viewBox="0 0 162 47" fill="none" xmlns="http://www.w3.org/2000/svg">
<g clip-path="url(#clip0_10382_969)">
<path d="M138.862 1.0574H24.0294C11.8525 1.0574 1.98096 10.9739 1.98096 23.205C1.98096 35.4372 11.8525 45.3536 24.0294 45.3536H138.862C151.039 45.3536 160.909 35.4372 160.909 23.206C160.909 10.9728 151.039 1.0574 138.862 1.0574Z" stroke="#202020" stroke-width="1.56132"/>
<path d="M59.5808 18.6656C60.028 18.672 60.4685 18.5549 60.854 18.327C61.2396 18.0991 61.5554 17.7693 61.7671 17.3734L61.8408 18.5915H62.5755V15.1951H59.7829V16.0072H61.6113C61.5008 16.8003 60.885 17.8535 59.6723 17.8535C58.286 17.8535 57.5039 16.7368 57.5039 15.3432C57.5039 13.9495 58.3776 12.8328 59.7092 12.8328C60.785 12.8328 61.3818 13.5804 61.5744 14.42L62.5029 14.143C62.3092 13.0264 61.326 12.0208 59.7092 12.0208C57.7166 12.0208 56.5492 13.5064 56.5492 15.3432C56.5492 17.1799 57.7071 18.6656 59.5808 18.6656ZM65.6871 18.6656C66.9366 18.6656 67.5155 17.8439 67.7639 17.2254L66.9281 17.0033C66.726 17.4654 66.3218 17.8535 65.706 17.8535C64.8608 17.8535 64.3376 17.2899 64.2723 16.5613H67.7818C67.8008 16.4503 67.8092 16.3678 67.8092 16.2377C67.8008 14.6135 66.7166 13.94 65.6692 13.94C64.3187 13.94 63.3997 14.9276 63.3997 16.3033C63.3997 17.6039 64.245 18.6656 65.6871 18.6656ZM66.9092 15.8232H64.3187C64.4566 15.2226 64.8418 14.715 65.7155 14.715C66.3944 14.715 66.8544 15.1867 66.9092 15.8232ZM70.4166 18.6656C70.6092 18.6656 70.8566 18.6381 71.0587 18.5915V17.7794C70.646 17.8619 69.7366 17.9455 69.7366 17.1524V14.8261H71.0587V14.014H69.7366V12.6848H69.0018C69.0018 13.7465 68.8081 14.088 67.9723 14.236V14.8261H68.8544V17.0414C68.8544 18.4255 69.626 18.6656 70.4166 18.6656ZM75.3534 13.4969C75.4312 13.4994 75.5087 13.4858 75.5811 13.4571C75.6535 13.4283 75.7192 13.3849 75.7743 13.3296C75.8293 13.2743 75.8725 13.2083 75.9011 13.1356C75.9298 13.0629 75.9433 12.985 75.9408 12.9069C75.9434 12.8286 75.93 12.7507 75.9014 12.6778C75.8729 12.605 75.8297 12.5388 75.7747 12.4834C75.7196 12.428 75.6538 12.3845 75.5813 12.3557C75.5089 12.3269 75.4313 12.3133 75.3534 12.3158C75.2754 12.3131 75.1977 12.3266 75.1251 12.3554C75.0525 12.3841 74.9866 12.4276 74.9314 12.483C74.8763 12.5384 74.833 12.6046 74.8044 12.6776C74.7757 12.7505 74.7623 12.8285 74.765 12.9069C74.765 13.2389 75.0039 13.498 75.3534 13.498V13.4969ZM75.7945 18.5915V14.014C75.6552 14.0744 75.5051 14.1056 75.3534 14.1056C75.2017 14.1056 75.0516 14.0744 74.9123 14.014V18.5915H75.7945ZM78.8418 18.6656C79.0344 18.6656 79.2818 18.6381 79.4839 18.5915V17.7794C79.0713 17.8619 78.1618 17.9455 78.1618 17.1524V14.8261H79.485V14.014H78.1618V12.6848H77.4271C77.4271 13.7465 77.2334 14.088 76.3976 14.236V14.8261H77.2797V17.0414C77.2797 18.4255 78.0513 18.6656 78.8418 18.6656ZM85.3218 18.6656C86.6723 18.6656 87.5997 17.6039 87.5997 16.3033C87.5997 15.0027 86.6723 13.94 85.3218 13.94C83.8797 13.94 83.0439 15.0016 83.0439 16.3033C83.0439 17.6039 83.9439 18.6656 85.3218 18.6656ZM85.3218 17.8535C84.5134 17.8535 83.925 17.1609 83.925 16.3033C83.925 15.4447 84.5144 14.7521 85.3218 14.7521C86.1302 14.7521 86.7187 15.4447 86.7187 16.3033C86.7187 17.1609 86.1302 17.8535 85.3218 17.8535ZM89.2323 18.5915V16.2472C89.2323 15.2416 89.9681 14.7521 90.5745 14.7521C91.1155 14.7521 91.585 15.0481 91.585 16.0072V18.5915H92.466V15.9332C92.466 14.549 91.8597 13.94 90.7766 13.94C89.9134 13.94 89.3976 14.5215 89.2323 14.7711V14.014H88.3513V18.5915H89.2323ZM60.8239 33.5646C62.4187 33.5646 63.2934 32.6076 63.5892 32.1688L63.7439 33.3573H65.3387V28.3959H61.1197V30.1533H63.1776C63.1008 30.7349 62.3544 31.7035 61.0166 31.7035C59.4734 31.7035 58.6502 30.4113 58.6502 28.8094C58.6502 27.2074 59.5766 25.9152 61.1587 25.9152C62.4702 25.9152 62.9587 26.9102 63.1387 27.569L65.2355 27.1302C64.9787 25.5673 63.6281 24.0552 61.146 24.0552C58.1881 24.0552 56.4902 26.187 56.4902 28.8094C56.4902 31.4317 58.0334 33.5646 60.8239 33.5646ZM69.6197 33.5646C71.6902 33.5646 73.1176 31.9879 73.1176 30.0497C73.1176 28.1125 71.6776 26.5359 69.6197 26.5359C67.4197 26.5359 66.1218 28.1115 66.1218 30.0497C66.1218 31.9879 67.4587 33.5646 69.6197 33.5646ZM69.6197 31.7035C68.7713 31.7035 68.1797 30.9538 68.1797 30.0497C68.1797 29.1456 68.7713 28.3959 69.6197 28.3959C70.4681 28.3959 71.0597 29.1456 71.0597 30.0497C71.0597 30.9538 70.4681 31.7035 69.6197 31.7035ZM77.1418 33.5646C79.2123 33.5646 80.6408 31.9879 80.6408 30.0497C80.6408 28.1125 79.1997 26.5359 77.1418 26.5359C74.9429 26.5359 73.6439 28.1115 73.6439 30.0497C73.6439 31.9879 74.9808 33.5646 77.1418 33.5646ZM77.1418 31.7035C76.2934 31.7035 75.7018 30.9538 75.7018 30.0497C75.7018 29.1456 76.2934 28.3959 77.1418 28.3959C77.9913 28.3959 78.5829 29.1456 78.5829 30.0497C78.5829 30.9538 77.9913 31.7035 77.1418 31.7035ZM84.6387 36.4576C86.6576 36.4576 88.4197 35.5017 88.4197 33.8998C88.4197 32.0916 86.8766 31.7426 84.7934 31.7817C83.005 31.8071 82.8776 31.3937 83.0439 31.0194C83.4555 31.161 83.9576 31.2382 84.5102 31.2382C86.4134 31.2382 87.5966 30.2696 87.5966 28.9257C87.5966 28.4477 87.4555 27.9951 87.1723 27.6208C87.4555 27.4411 87.7902 27.3755 88.2144 27.3755V25.9163C87.5966 25.9416 86.7229 26.316 86.2208 26.8722C85.7576 26.6649 85.1913 26.5359 84.5102 26.5359C82.5555 26.5359 81.4239 27.6208 81.4239 28.9257C81.4239 29.4554 81.5902 29.9207 81.925 30.295C81.0629 30.8512 81.1923 32.0133 81.886 32.5304C81.4618 32.892 81.0123 33.4218 81.0123 34.1715C81.0123 35.2046 81.8734 36.4576 84.6387 36.4576ZM84.5102 29.7145C83.8681 29.7145 83.4808 29.3391 83.4808 28.8876C83.4808 28.4604 83.8671 28.0861 84.5102 28.0861C85.1408 28.0861 85.5387 28.4604 85.5387 28.8876C85.5387 29.3391 85.1408 29.7145 84.5102 29.7145ZM84.5618 34.8049C83.3018 34.8049 82.7618 34.3396 82.7618 33.8998C82.7618 33.6291 82.9544 33.3055 83.1092 33.2283C83.4944 33.3446 84.1376 33.4345 84.8955 33.4736C85.6544 33.5127 86.3618 33.5127 86.3618 33.9643C86.3618 34.3269 85.745 34.8049 84.5618 34.8049ZM91.1576 33.3573V24.0563H89.1008V33.3584H91.1576V33.3573ZM95.3618 33.5646C97.2271 33.5646 98.1787 32.4913 98.5513 31.381L96.5965 31.0056C96.4292 31.3683 96.1208 31.9108 95.3366 31.9108C94.5523 31.9108 94.0123 31.3546 93.8839 30.5668H98.5902C98.6163 30.3266 98.6293 30.0851 98.6292 29.8435C98.6166 27.5701 96.9955 26.5359 95.3239 26.5359C93.1113 26.5359 91.8387 28.0089 91.8387 30.0497C91.8387 31.9879 93.0597 33.5646 95.3618 33.5646ZM96.5839 29.3264H93.9218C94.0765 28.655 94.4618 28.1379 95.3492 28.1379C96.0313 28.1379 96.5071 28.6032 96.5839 29.3264ZM105.237 33.3573V30.257H107.166C109.301 30.257 110.484 28.8094 110.484 27.2074C110.484 25.6054 109.404 24.2625 106.96 24.2625H103.076V33.3573H105.237ZM106.845 28.4995H105.237V26.1225H106.845C107.732 26.1225 108.324 26.4968 108.324 27.311C108.324 28.0343 107.732 28.4995 106.845 28.4995ZM113.428 33.3573V24.0563H111.37V33.3584H113.428V33.3573ZM120.127 33.5646C120.501 33.5722 120.871 33.4925 121.208 33.3319V31.8843C121.002 31.9626 120.59 31.8589 120.59 31.2393V29.5844C120.59 27.2592 119.252 26.5359 117.581 26.5359C115.831 26.5359 114.712 27.4273 114.417 28.6032L116.371 29.0155C116.513 28.5387 116.822 28.1379 117.529 28.1379C118.275 28.1379 118.532 28.6032 118.532 29.3529C116.321 29.2101 114.211 29.5591 114.211 31.4328C114.211 32.5822 115.008 33.5646 116.552 33.5646C117.517 33.5646 118.249 33.1247 118.751 32.375C118.892 33.0993 119.317 33.5646 120.127 33.5646ZM116.269 31.3546C116.269 30.5541 117.465 30.3733 118.532 30.515C118.443 31.2382 117.864 31.9742 117.157 32.0398C116.706 32.0789 116.269 31.9234 116.269 31.3546ZM122.428 36.4576C124.048 36.4576 124.614 35.1782 125.514 33.0993L128.267 26.7421H126.004L124.563 30.4642L123.123 26.7421H120.859L123.419 32.9957C122.879 34.3132 122.647 34.8038 121.27 34.5712L121.553 36.3805C121.721 36.4196 122.081 36.4576 122.428 36.4576Z" fill="#202020"/>
<path d="M24.3652 12.4088C24.1125 12.6626 24.0283 13.0845 24.0283 13.591V32.2406C24.0283 32.7482 24.1967 33.1691 24.4494 33.4228L24.5336 33.5074L34.9504 23.0422V22.873L24.3652 12.4077V12.4088Z" fill="url(#paint0_linear_10382_969)"/>
<path d="M38.3949 26.5866L34.9507 23.1267V22.873L38.3949 19.4131L38.4791 19.4977L42.5949 21.861C43.7717 22.5356 43.7717 23.6332 42.5949 24.3079L38.3949 26.5866Z" fill="url(#paint1_linear_10382_969)"/>
<path d="M38.3948 19.4142L26.1285 12.4088C25.3727 11.9869 24.7843 12.0705 24.3643 12.4934L34.8664 22.9587L38.3948 19.4132V19.4142Z" fill="url(#paint2_linear_10382_969)"/>
<path d="M38.3948 26.5032L34.8664 22.9587L24.3643 33.5086C24.7853 33.9294 25.3727 33.9294 26.1285 33.5931L38.3948 26.5032Z" fill="url(#paint3_linear_10382_969)"/>
</g>
<defs>
<linearGradient id="paint0_linear_10382_969" x1="30.6936" y1="13.4303" x2="21.6972" y2="22.386" gradientUnits="userSpaceOnUse">
<stop stop-color="#00A0FF"/>
<stop offset="0.007" stop-color="#00A1FF"/>
<stop offset="0.26" stop-color="#00BEFF"/>
<stop offset="0.512" stop-color="#00D2FF"/>
<stop offset="0.76" stop-color="#00DFFF"/>
<stop offset="1" stop-color="#00E3FF"/>
</linearGradient>
<linearGradient id="paint1_linear_10382_969" x1="44.1359" y1="22.9586" x2="23.8075" y2="22.9586" gradientUnits="userSpaceOnUse">
<stop stop-color="#FFE000"/>
<stop offset="0.409" stop-color="#FFBD00"/>
<stop offset="0.775" stop-color="#FFA500"/>
<stop offset="1" stop-color="#FF9C00"/>
</linearGradient>
<linearGradient id="paint2_linear_10382_969" x1="21.7579" y1="10.8661" x2="28.5761" y2="17.6544" gradientUnits="userSpaceOnUse">
<stop stop-color="#32A071"/>
<stop offset="0.069" stop-color="#2DA771"/>
<stop offset="0.476" stop-color="#15CF74"/>
<stop offset="0.801" stop-color="#06E775"/>
<stop offset="1" stop-color="#00F076"/>
</linearGradient>
<linearGradient id="paint3_linear_10382_969" x1="36.4853" y1="26.3118" x2="21.1614" y2="41.5653" gradientUnits="userSpaceOnUse">
<stop stop-color="#FF3A44"/>
<stop offset="1" stop-color="#C31162"/>
</linearGradient>
<clipPath id="clip0_10382_969">
<rect width="161.053" height="46.5263" fill="white" transform="translate(0.947266)"/>
</clipPath>
</defs>
</svg>
