<svg id="Icon_Google_Play" data-name="Icon Google Play" xmlns="http://www.w3.org/2000/svg" width="203.771" height="60.377" viewBox="0 0 203.771 60.377">
  <rect id="Rectangle_185" data-name="Rectangle 185" width="203.771" height="60.377" rx="5.913" transform="translate(0 0)" fill="#fff"/>
  <g id="Group_62" data-name="Group 62" transform="translate(62.417 10.363)">
    <path id="Path_111" data-name="Path 111" d="M318.163,1004.516a4.088,4.088,0,0,1-1.126,3.023,4.393,4.393,0,0,1-3.327,1.339,4.731,4.731,0,1,1,0-9.461,4.674,4.674,0,0,1,1.859.38,3.717,3.717,0,0,1,1.417,1.012l-.8.8a3.056,3.056,0,0,0-2.48-1.075,3.617,3.617,0,1,0,2.53,6.223,2.842,2.842,0,0,0,.759-1.834H313.71v-1.089H318.1A3.92,3.92,0,0,1,318.163,1004.516Z" transform="translate(-309.006 -999.417)" fill="#424240" stroke="#424240" stroke-miterlimit="10" stroke-width="0.084"/>
    <path id="Path_112" data-name="Path 112" d="M322.777,1000.689h-4.125v2.872h3.719v1.087h-3.719v2.872h4.125v1.113h-5.288v-9.056h5.288Z" transform="translate(-306.662 -999.373)" fill="#424240" stroke="#424240" stroke-miterlimit="10" stroke-width="0.084"/>
    <path id="Path_113" data-name="Path 113" d="M326.277,1008.632h-1.165v-7.943h-2.53v-1.113h6.224v1.113h-2.53Z" transform="translate(-305.255 -999.373)" fill="#424240" stroke="#424240" stroke-miterlimit="10" stroke-width="0.084"/>
    <path id="Path_114" data-name="Path 114" d="M330.987,1008.632v-9.056h1.163v9.056Z" transform="translate(-302.933 -999.373)" fill="#424240" stroke="#424240" stroke-miterlimit="10" stroke-width="0.084"/>
    <path id="Path_115" data-name="Path 115" d="M336.742,1008.632h-1.164v-7.943h-2.53v-1.113h6.223v1.113h-2.53Z" transform="translate(-302.364 -999.373)" fill="#424240" stroke="#424240" stroke-miterlimit="10" stroke-width="0.084"/>
    <path id="Path_116" data-name="Path 116" d="M348.882,1007.506a4.7,4.7,0,0,1-6.64,0,4.894,4.894,0,0,1,0-6.716,4.685,4.685,0,0,1,6.634.006,4.878,4.878,0,0,1,.006,6.709Zm-5.782-.758a3.485,3.485,0,0,0,4.921,0,3.863,3.863,0,0,0,0-5.2,3.485,3.485,0,0,0-4.921,0,3.866,3.866,0,0,0,0,5.2Z" transform="translate(-300.192 -999.417)" fill="#424240" stroke="#424240" stroke-miterlimit="10" stroke-width="0.084"/>
    <path id="Path_117" data-name="Path 117" d="M349.481,1008.632v-9.056H350.9l4.4,7.045h.05l-.05-1.745v-5.3h1.164v9.056h-1.215l-4.6-7.386h-.05l.05,1.745v5.641Z" transform="translate(-297.824 -999.373)" fill="#424240" stroke="#424240" stroke-miterlimit="10" stroke-width="0.084"/>
  </g>
  <path id="Path_118" data-name="Path 118" d="M349.536,1018.559a6.42,6.42,0,1,0,6.444,6.421A6.329,6.329,0,0,0,349.536,1018.559Zm0,10.311a3.9,3.9,0,1,1,3.622-3.89A3.713,3.713,0,0,1,349.536,1028.87Zm-14.058-10.311a6.42,6.42,0,1,0,6.444,6.421A6.328,6.328,0,0,0,335.478,1018.559Zm0,10.311a3.9,3.9,0,1,1,3.623-3.89A3.713,3.713,0,0,1,335.478,1028.87Zm-16.723-8.34v2.724h6.518a5.682,5.682,0,0,1-1.484,3.428,6.67,6.67,0,0,1-5.034,1.995,7.247,7.247,0,0,1,0-14.493,6.947,6.947,0,0,1,4.912,1.945l1.921-1.921a9.5,9.5,0,0,0-6.833-2.748,9.971,9.971,0,1,0,0,19.94,9.111,9.111,0,0,0,6.954-2.8,9,9,0,0,0,2.36-6.371,8.794,8.794,0,0,0-.147-1.7Zm68.389,2.115a5.966,5.966,0,0,0-5.5-4.085,6.1,6.1,0,0,0-6.055,6.421,6.283,6.283,0,0,0,6.371,6.42,6.387,6.387,0,0,0,5.35-2.846l-2.189-1.459a3.666,3.666,0,0,1-3.161,1.775,3.266,3.266,0,0,1-3.113-1.945l8.584-3.551Zm-8.754,2.14a3.521,3.521,0,0,1,3.355-3.745,2.487,2.487,0,0,1,2.384,1.362Zm-6.979,6.225h2.821v-18.871h-2.821Zm-4.62-11.015h-.1a4.447,4.447,0,0,0-3.38-1.436,6.426,6.426,0,0,0,0,12.841,4.378,4.378,0,0,0,3.38-1.459h.1v.924c0,2.456-1.313,3.769-3.429,3.769a3.552,3.552,0,0,1-3.234-2.286l-2.457,1.021a6.118,6.118,0,0,0,5.691,3.793c3.307,0,6.1-1.945,6.1-6.687v-11.527h-2.674Zm-3.235,8.875a3.9,3.9,0,0,1,0-7.781,3.922,3.922,0,0,1,0,7.781Zm36.8-16.729h-6.749v18.87h2.817v-7.15h3.932a5.869,5.869,0,1,0,0-11.72Zm.073,9.095h-4v-6.469h4a3.235,3.235,0,1,1,0,6.469Zm17.407-2.711a5.289,5.289,0,0,0-5.026,2.889l2.5,1.044a2.671,2.671,0,0,1,2.574-1.385,2.712,2.712,0,0,1,2.961,2.429v.194a6.229,6.229,0,0,0-2.937-.729c-2.7,0-5.438,1.48-5.438,4.249,0,2.525,2.209,4.151,4.685,4.151a3.971,3.971,0,0,0,3.593-1.844h.1v1.456h2.72v-7.234C423.566,1020.394,421.064,1018.524,417.837,1018.524Zm-.341,10.342c-.923,0-2.209-.461-2.209-1.6,0-1.456,1.6-2.015,2.986-2.015a5.008,5.008,0,0,1,2.573.632A3.413,3.413,0,0,1,417.5,1028.866Zm15.974-9.928-3.228,8.181h-.1l-3.349-8.181H423.76l5.025,11.434-2.864,6.36h2.937l7.744-17.794ZM408.1,1031.01h2.817v-18.87H408.1Z" transform="translate(-246.69 -985.727)" fill="#424240"/>
  <g id="Group_64" data-name="Group 64" transform="translate(15.053 10.778)">
    <path id="Path_119" data-name="Path 119" d="M272.592,1000.236a3.03,3.03,0,0,0-.7,2.121v33.382a3.028,3.028,0,0,0,.7,2.121l.112.109,18.7-18.7v-.442l-18.7-18.7Z" transform="translate(-271.894 -999.636)" fill="#424240" stroke="#fff" stroke-width="1"/>
    <path id="Path_120" data-name="Path 120" d="M293.414,1022.806l-6.233-6.236v-.442l6.235-6.234.14.08,7.386,4.2c2.11,1.2,2.11,3.16,0,4.359l-7.386,4.2Z" transform="translate(-267.671 -996.937)" fill="#424240" stroke="#fff" stroke-width="1"/>
    <path id="Path_121" data-name="Path 121" d="M297.628,1021.328l-6.375-6.376-18.812,18.812c.7.735,1.844.827,3.137.092l22.05-12.528" transform="translate(-271.743 -995.54)" fill="#424240" stroke="#fff" stroke-width="1"/>
    <path id="Path_122" data-name="Path 122" d="M297.628,1012.778l-22.05-12.528c-1.293-.735-2.441-.643-3.137.092l18.812,18.812Z" transform="translate(-271.743 -999.742)" fill="#424240" stroke="#fff" stroke-width="1"/>
    <g id="Group_63" data-name="Group 63" transform="translate(0 25.648)">
      <path id="Path_123" data-name="Path 123" d="M297.488,1019.838l-21.91,12.449a2.513,2.513,0,0,1-3.023.015h0l-.114.112h0l.112.11h0a2.511,2.511,0,0,0,3.023-.016l22.05-12.528Z" transform="translate(-271.743 -1019.838)" fill="#424240" stroke="#fff" stroke-width="1" opacity="0.2"/>
      <path id="Path_124" data-name="Path 124" d="M272.592,1029.978a3.027,3.027,0,0,1-.7-2.12v.221a3.028,3.028,0,0,0,.7,2.12l.114-.113Z" transform="translate(-271.894 -1017.622)" fill="#424240" stroke="#fff" stroke-width="1" opacity="0.12"/>
    </g>
    <path id="Path_125" data-name="Path 125" d="M299.592,1016.911l-7.526,4.277.14.14,7.386-4.2a2.652,2.652,0,0,0,1.583-2.179h0A2.815,2.815,0,0,1,299.592,1016.911Z" transform="translate(-266.321 -995.54)" fill="#424240" stroke="#fff" stroke-width="1" opacity="0.12"/>
    <path id="Path_126" data-name="Path 126" d="M275.729,1000.471l29.436,16.724a2.813,2.813,0,0,1,1.583,1.959h0a2.649,2.649,0,0,0-1.583-2.18l-29.436-16.724c-2.11-1.2-3.835-.2-3.835,2.213v.221C271.894,1000.268,273.62,999.272,275.729,1000.471Z" transform="translate(-271.894 -999.742)" fill="#424240" stroke="#fff" stroke-width="1" opacity="0.25"/>
  </g>
</svg>
